<?xml version="1.0" encoding="utf-8"?>
<!-- Generator: Adobe Illustrator 24.3.0, SVG Export Plug-In . SVG Version: 6.00 Build 0)  -->
<svg version="1.1" id="Layer_1" xmlns="http://www.w3.org/2000/svg" xmlns:xlink="http://www.w3.org/1999/xlink" x="0px" y="0px"
	 viewBox="0 0 897.3 264.9" style="enable-background:new 0 0 897.3 264.9;" xml:space="preserve">
<style type="text/css">
	.st0{fill:#EF8216;}
</style>
<g id="Layer_2_1_">
	<g id="Layer_1-2">
		<path class="st0" d="M314.1,0c19.4,5.6,31.4,8.8,36.1,9.8c3.6,11.9,5.4,24.3,5.5,36.7c0.1,14.4-2.7,28.7-8.2,42
			c-6,4.8-11.7,9.9-17.2,15.3c-5.9,5.8-12.5,13-19.9,21.4s-14.6,17.3-21.7,26.6c-22.4,28.8-42.9,59.1-61.3,90.7l-43.8,22l-4-66.8
			c-1.2-20.4-3.5-37.8-6.8-52.1c-3.2-13.6-7.3-25.3-12.4-35c-4.9-9.1-12-18.8-21.3-29.3c-32.9-17.3-69-25.9-108.3-25.9
			C20.5,55.5,10.2,56.3,0,58c13.7-19.3,23-33.6,27.8-42.9C46.8,5.4,67.9,0.3,89.3,0.3c19.8,0,39.7,4.1,59.9,12.2
			c11.5,4.7,22.6,10.4,33.3,16.9c12.5,7.4,25.8,16.4,40,27c0.4,6.1,0.6,10.7,0.6,13.6c0,5.9-1,22.8-3.1,50.7
			c-2.1,27.9-4.4,57.7-7.1,89.3c33.8-47,64.1-80.3,90.8-99.8l-1.3-43L273.8,71c2-4.6,6-12.2,12-22.8S301.2,21.5,314.1,0z"/>
		<path class="st0" d="M362.9,108.3V78.5c21.1-0.7,38.6-3.6,52.5-8.8l-2,32.1l-1.9,37.1c9-14.7,15-25.8,18-33.4
			c3.2-8,5.9-19,8.2-33.3c11.7,1,28.4,2.3,50.1,3.9c-1.7,7.9-4.2,26.9-7.5,57l-4.5,47.1c-1.3,13.5-2.8,23.2-4.5,29.1
			c-2,6.4-6,14-12,22.7c-6.4,9.4-15.6,20.4-27.5,32.8c-30.2-2.8-53.5-9.9-69.7-21.3l-8.2-19.7c5.5-8.6,11.4-17,17.7-25.1
			c5.2,6.3,12.7,10.7,22.6,13.1c9.9,2.4,21.8,4.7,35.9,6.9c-1.9-22.3-2.9-39.8-2.9-52.6c0-7.9,0.3-17.2,0.9-27.9l-32.5,41.9
			c-3.6,4.4-5.7,8.7-6.5,13c-7.5-0.9-14.8-2.9-21.7-6c-0.9-7.4-1.6-15.2-2.2-23.3c-0.6-6.1-1.1-15.1-1.6-27.2
			C363.3,126.7,363,117.2,362.9,108.3z"/>
		<path class="st0" d="M505.9,58.5V16l19-4.8c11.4-2.8,20.6-5.4,27.6-7.8c0.1,1.8,0.1,3.3,0.1,4.5v26.2c0,16,1.5,34.2,4.6,54.6
			c5.9-5.7,11.2-12,15.8-18.9c14,1.3,24.8,4,32.4,8.2c7.6,4.2,12.6,10.1,15.1,17.6c2.5,7.5,3.8,17.7,3.8,30.7
			c0,13.7-1.4,24.5-4.2,32.3c-2.8,7.5-7.8,14.8-15.1,21.9c-7.1,7-14.2,11.8-21.2,14.4l-31.8-18.4c-2.5,7.1-4.4,11.8-5.8,14
			L499.5,203c4.1-17.2,6.4-27.5,6.9-31c0.4-3,0.6-22,0.6-57.2c0-5.8-0.2-14.3-0.6-25.5C506.1,77.2,505.9,66.9,505.9,58.5z
			 M565.3,97.2c-4.4,8.7-8.2,14.6-11.2,17.7c0,3.6-0.1,8.4-0.2,14.6c-0.1,6.2-0.3,12-0.4,17.4c8.5,3.6,17.2,6.8,26.1,9.4
			c0.5-3.4,0.8-6.8,0.9-10.2C580.5,126.8,575.4,110.5,565.3,97.2z"/>
		<path class="st0" d="M645.5,96l32.4-27.5l38.7,2.9c12.5,1.1,21.3,4.2,26.5,9.4c5.4,5.4,8.1,11.2,8.1,17.6
			c-0.1,3.6-0.5,7.2-1.2,10.8c-1,5.2-2.1,12.9-3.3,23.2c-13.1,6.8-23.1,10.8-29.9,11.9c-6.6,1.1-13.2,1.7-19.9,1.8
			c-3,0-6-0.3-8.9-0.7c9.4,11.7,18.6,17.6,27.5,17.6c10.6,0,20.1-4,28.5-11.9h1.2c-9.6,29.9-27.4,44.9-53.3,44.9
			c-13.4,0-23.2-1.9-29.2-5.6c-6.2-3.9-11-9.6-13.8-16.3c-3.3-6.9-4.9-20-4.9-39.3l0.7-24.6L645.5,96z M689,97.5l-3.8,35.1
			c8.4,0,17.3-0.3,26.9-0.9c0.2-6.3,0.3-9.4,0.3-9.1c0-8.2-2.2-14.3-6.5-18.4S696,97.8,689,97.5z"/>
		<path class="st0" d="M808.2,68.1c0.6,0,8.8,0.6,24.8,1.7c17.1,1.1,33.7,1.6,50,1.6c-0.1,0.4-1.2,4-3.2,10.8
			c-3.3,11.1-5.1,19.4-5.2,24.8c-11.2-4.4-33.1-8-65.5-10.8c4.6,13.6,19.7,20.4,45.2,20.4c13.4,0,22.7,0.6,27.6,1.7
			c4.5,1,8.6,3.5,11.4,7.2c2.7,3.6,4,8.7,4,15.4c0,7.3-1.6,14.5-4.6,21.2c-2.8,6.2-6.6,11.9-11.4,16.7c-4.4,4.3-12.2,8.2-23.3,11.7
			c-11.3,3.5-23,5.2-34.8,5.2c-21.1,0-38.7-4.3-52.8-12.9c2.3-7.2,4.9-14.3,7.9-21.2c15,6.5,31.9,9.8,50.8,9.8
			c9.8,0.1,19.5-2.8,27.7-8.3c-5.6-4-12.3-6.2-19.2-6.2c-1.4,0-3.2,0-5.2,0.1c-4.8,0.2-7.5,0.3-8.2,0.3c-18.9,0-33.3-2.8-43.2-8.5
			c-9.9-5.6-14.8-15.3-14.8-29.1c0-10.9,3-20.1,8.9-27.5C781,84.8,792.1,76.8,808.2,68.1z"/>
	</g>
</g>
</svg>
