<svg xmlns="http://www.w3.org/2000/svg" viewBox="0 0 897.31 264.89"><defs><style>.cls-1{fill:#fff;}</style></defs><g id="Layer_2" data-name="Layer 2"><g id="Layer_1-2" data-name="Layer 1"><path class="cls-1" d="M314.12,0q29.08,8.36,36.14,9.79a129.71,129.71,0,0,1,5.47,36.71,108.35,108.35,0,0,1-8.21,42,214.18,214.18,0,0,0-17.2,15.33q-8.85,8.72-19.94,21.45t-21.74,26.56a820.41,820.41,0,0,0-61.33,90.69l-43.76,22-4-66.8q-1.87-30.66-6.77-52.11-4.74-20.44-12.38-35Q153,97,139.07,81.34,89.69,55.42,30.81,55.43A195.8,195.8,0,0,0,0,58q20.58-28.94,27.78-42.9A136.41,136.41,0,0,1,89.26.29q29.65,0,59.88,12.24A235.75,235.75,0,0,1,182.4,29.44q18.71,11.16,40,27Q223,65.66,223,70q0,8.79-3.1,50.68T212.77,210q50.67-70.54,90.84-99.77l-1.29-43L273.81,71q3-6.9,12-22.82T314.12,0Z"/><path class="cls-1" d="M362.92,108.26V78.46q31.68-1,52.55-8.78l-2,32.1-1.88,37.14q13.53-22,18-33.4,4.76-11.94,8.21-33.25,17.55,1.44,50.09,3.89-2.58,11.81-7.48,57l-4.47,47.08q-2,20.3-4.46,29.08-3,9.65-12,22.74-9.64,14.12-27.49,32.83-45.36-4.18-69.68-21.31l-8.21-19.72a298.56,298.56,0,0,1,17.71-25.05q7.77,9.49,22.6,13.1t35.85,6.91q-2.88-33.4-2.88-52.55,0-11.79.86-27.92l-32.53,41.89q-5.33,6.62-6.48,13a75.42,75.42,0,0,1-21.74-6q-1.29-11.09-2.16-23.32-.86-9.08-1.58-27.21Q363.07,121.65,362.92,108.26Z"/><path class="cls-1" d="M505.88,58.45V16l19-4.75Q542,7.06,552.52,3.46c.1,1.82.14,3.31.14,4.46v26.2q0,24,4.61,54.56a115.2,115.2,0,0,0,15.84-18.86q21,1.88,32.39,8.21t15.11,17.56q3.75,11.23,3.75,30.66,0,20.59-4.18,32.25-4.17,11.24-15.11,21.88-10.67,10.51-21.17,14.4l-31.81-18.43q-3.75,10.67-5.76,14L499.54,203q6.19-25.77,6.91-31,.58-4.46.58-57.15,0-8.77-.58-25.48Q505.88,71.11,505.88,58.45Zm59.45,38.72q-6.62,13-11.22,17.71,0,5.33-.22,14.61t-.36,17.35a230.94,230.94,0,0,0,26.06,9.36,66.54,66.54,0,0,0,.86-10.22Q580.45,117.18,565.33,97.17Z"/><path class="cls-1" d="M645.52,96l32.39-27.49,38.73,2.87q18.71,1.59,26.49,9.36,8.05,8.07,8.06,17.57A65.58,65.58,0,0,1,750,109.12q-1.57,7.77-3.31,23.18Q727,142.53,716.78,144.25A121.09,121.09,0,0,1,696.91,146a68.56,68.56,0,0,1-8.92-.72q14.1,17.56,27.49,17.56,15.84,0,28.51-11.95h1.15q-14.4,44.92-53.27,44.92-20.14,0-29.22-5.62a35.51,35.51,0,0,1-13.82-16.27q-4.89-10.36-4.89-39.3l.72-24.61ZM689,97.46l-3.75,35.13q12.53,0,26.92-.87.29-9.5.29-9.07,0-12.23-6.48-18.42T689,97.46Z"/><path class="cls-1" d="M808.2,68.09q.85,0,24.76,1.73,25.62,1.59,49.95,1.58-.15.59-3.17,10.8-5,16.71-5.18,24.76-16.84-6.61-65.5-10.79,6.91,20.43,45.2,20.44,20.16,0,27.64,1.73a19.59,19.59,0,0,1,11.38,7.19q4,5.34,4,15.41a51.63,51.63,0,0,1-4.61,21.16,57.17,57.17,0,0,1-11.37,16.7q-6.63,6.48-23.32,11.66a115.85,115.85,0,0,1-34.84,5.18q-31.68,0-52.84-12.95a211.6,211.6,0,0,1,7.92-21.17q22.46,9.79,50.82,9.79A49.21,49.21,0,0,0,856.71,163a32.59,32.59,0,0,0-19.15-6.19c-1.44,0-3.16,0-5.18.15q-7.2.29-8.2.29-28.36,0-43.19-8.5-14.84-8.34-14.83-29.08,0-16.41,8.92-27.49T808.2,68.09Z"/></g></g></svg>