<svg xmlns="http://www.w3.org/2000/svg" width="64.559" height="80" viewBox="0 0 64.559 80"><defs><style>.a{fill:#ef8216;}</style></defs><g transform="translate(-62.305 -15.953)"><path class="a" d="M120.038,46.825a1.333,1.333,0,0,0,1.885,0l3.771-3.771a4,4,0,0,0,0-5.656l-1.885-1.885a4.005,4.005,0,0,0-5.656,0l-3.771,3.771a1.333,1.333,0,0,0,0,1.886h0l-2.088,2.089a29.223,29.223,0,0,0-11.188-5.234,12,12,0,1,0-13.042,0,29.223,29.223,0,0,0-11.188,5.234L74.786,41.17h0a1.333,1.333,0,0,0,0-1.886l-3.771-3.771a4.005,4.005,0,0,0-5.656,0L63.475,37.4a4,4,0,0,0,0,5.656l3.771,3.771a1.333,1.333,0,0,0,1.885,0h0l2.089,2.088a29.33,29.33,0,1,0,46.729,0l2.088-2.089Zm0-9.427a1.335,1.335,0,0,1,1.885,0l1.885,1.885a1.335,1.335,0,0,1,0,1.886L120.98,44l-3.771-3.771Zm-26.787-.2v-2.57h2.666V37.2A9.227,9.227,0,0,1,93.251,37.2Zm4-5.236H91.918v-4a1.335,1.335,0,0,1,1.333-1.333h2.666a1.335,1.335,0,0,1,1.333,1.333Zm-12-4a9.332,9.332,0,1,1,13.332,8.43V34.626a1.333,1.333,0,0,0,1.333-1.333V27.96a4,4,0,0,0-4-4H93.251a4,4,0,0,0-4,4v5.333a1.333,1.333,0,0,0,1.333,1.333V36.39a9.344,9.344,0,0,1-5.333-8.43ZM65.36,41.169a1.335,1.335,0,0,1,0-1.885L67.246,37.4a1.335,1.335,0,0,1,1.885,0l2.828,2.828L68.188,44Zm5.657,3.77L72.9,43.055l1.916,1.916q-.983.9-1.884,1.884ZM94.584,93.287a26.664,26.664,0,1,1,26.664-26.664A26.694,26.694,0,0,1,94.584,93.287Zm21.65-46.43q-.9-.983-1.884-1.884l1.916-1.916,1.884,1.884Z"/><path class="a" d="M158.691,190.637a1.351,1.351,0,0,0-.132-.114,22.623,22.623,0,0,0-31.788,0,1.192,1.192,0,0,0-.247.247,22.623,22.623,0,0,0,0,31.787,1.2,1.2,0,0,0,.247.247,22.623,22.623,0,0,0,31.787,0,1.2,1.2,0,0,0,.247-.247,22.623,22.623,0,0,0,0-31.787A1.334,1.334,0,0,0,158.691,190.637ZM158.663,208h3.954a19.915,19.915,0,0,1-4.908,11.826l-2.79-2.79a1.333,1.333,0,1,0-1.885,1.885l2.79,2.79A19.915,19.915,0,0,1,144,226.616v-3.954a1.333,1.333,0,1,0-2.666,0v3.954a19.915,19.915,0,0,1-11.826-4.908l2.79-2.79a1.333,1.333,0,1,0-1.885-1.885l-2.79,2.79A19.915,19.915,0,0,1,122.712,208h3.954a1.333,1.333,0,1,0,0-2.666h-3.954a19.915,19.915,0,0,1,4.908-11.826l2.79,2.79a1.333,1.333,0,1,0,1.885-1.885l-2.79-2.79a19.915,19.915,0,0,1,11.826-4.908v3.954a1.333,1.333,0,1,0,2.666,0v-3.954a19.915,19.915,0,0,1,11.826,4.908l-2.79,2.79a1.333,1.333,0,1,0,1.885,1.885l2.79-2.79a19.915,19.915,0,0,1,4.908,11.826h-3.954a1.333,1.333,0,1,0,0,2.666Z" transform="translate(-48.08 -140.041)"/><path class="a" d="M222.29,274.291h-6.9a4,4,0,0,0-5.493-2.276l-4.875-4.875a1.333,1.333,0,0,0-1.885,1.885l4.875,4.875a4,4,0,1,0,7.379,3.057h6.9a1.333,1.333,0,0,0,0-2.666Zm-10.666,2.666a1.333,1.333,0,1,1,1.333-1.333A1.333,1.333,0,0,1,211.624,276.957Z" transform="translate(-117.039 -209.001)"/></g></svg>