<svg xmlns="http://www.w3.org/2000/svg" width="79.816" height="80" viewBox="0 0 79.816 80"><defs><style>.a{fill:#ef8216;}</style></defs><g transform="translate(-0.572)"><g transform="translate(0.573 12.903)"><g transform="translate(0)"><path class="a" d="M65.41,136.774l-2.987-8.963a9.032,9.032,0,0,0-6.954-6.03l-8.623-1.569v-.668a12.986,12.986,0,0,0,3.846-3.415H53.3a3.876,3.876,0,0,0,3.871-3.871V96.774a16.774,16.774,0,0,0-33.548,0v9.032a5.17,5.17,0,0,0,4.115,5.054,12.927,12.927,0,0,0,6.208,8.684v.668l-8.625,1.569a9.031,9.031,0,0,0-6.952,6.03l-.516,1.55-4.395-4.395a1.293,1.293,0,0,1,0-1.826l5.1-5.1-9.566-9.566-5.76,5.76a9.032,9.032,0,0,0,0,12.773L20.664,144.45a9.028,9.028,0,0,0,12.733.039l6.285-5.759-1.96-1.956ZM54.588,112.258a1.292,1.292,0,0,1-1.29,1.29H52.212a12.816,12.816,0,0,0,.841-2.688,5.111,5.111,0,0,0,1.534-.61Zm-1.29-4.23v-4.444a2.558,2.558,0,0,1,0,4.444Zm-25.806,0a2.558,2.558,0,0,1,0-4.444Zm0-8.674v1.474a5.118,5.118,0,0,0-1.29.534V96.774a14.194,14.194,0,0,1,28.387,0v4.588a5.071,5.071,0,0,0-1.29-.534V99.355h-1.29a14.2,14.2,0,0,1-10.1-4.185l-1.511-1.511L38.883,95.17a14.2,14.2,0,0,1-10.1,4.185Zm2.581,9.032v-6.5A16.729,16.729,0,0,0,40.394,97.3a16.722,16.722,0,0,0,10.323,4.586v6.5a10.245,10.245,0,0,1-1.4,5.161H40.394v2.581H47.2a10.306,10.306,0,0,1-17.128-7.742ZM44.265,120.7v.061l-3.871,3.871-3.871-3.871V120.7a12.893,12.893,0,0,0,7.742,0Zm-23.453,7.932a6.454,6.454,0,0,1,4.966-4.308L34.8,122.68l5.6,5.6,5.595-5.595,9.018,1.639a6.452,6.452,0,0,1,4.966,4.308l1.857,5.565H35.141l-5.026-5.026-5.585,5.052a1.318,1.318,0,0,1-1.825,0L19.888,131.4Zm-11.828-16.5,5.917,5.917-1.4,1.4-5.917-5.917Zm22.626,30.5a6.453,6.453,0,0,1-9.124,0L5.047,125.188a6.453,6.453,0,0,1,0-9.124l.71-.71,5.917,5.917-.046.046a3.878,3.878,0,0,0,0,5.475l9.253,9.253a3.851,3.851,0,0,0,2.738,1.134,3.8,3.8,0,0,0,2.69-1.089l.1-.086,5.945,5.945Zm2.645-2.426-5.932-5.932,1.7-1.541,5.921,5.921Z" transform="translate(-0.58 -80)"/></g></g><g transform="translate(54.581)"><path class="a" d="M357.363,0H339.3a3.876,3.876,0,0,0-3.871,3.871V14.194a3.876,3.876,0,0,0,3.871,3.871h3.446l-1.334,7.782,12.452-7.782h3.5a3.876,3.876,0,0,0,3.871-3.871V3.871A3.876,3.876,0,0,0,357.363,0Zm1.29,14.194a1.292,1.292,0,0,1-1.29,1.29h-4.241l-8.195,5.121.879-5.121H339.3a1.292,1.292,0,0,1-1.29-1.29V3.871a1.292,1.292,0,0,1,1.29-1.29h18.065a1.292,1.292,0,0,1,1.29,1.29Z" transform="translate(-335.428)"/></g><g transform="translate(59.742 5.161)"><rect class="a" width="15.484" height="2.581"/></g><g transform="translate(59.742 10.323)"><rect class="a" width="10.323" height="2.581"/></g><g transform="translate(72.646 10.323)"><rect class="a" width="2.581" height="2.581"/></g><g transform="translate(0.572 3.871)"><g transform="translate(0)"><path class="a" d="M40.387,24A36.106,36.106,0,0,0,5.23,51.929L2.785,47.853.572,49.181l4.535,7.557L12.665,52.2,11.337,49.99l-3.5,2.1a33.557,33.557,0,0,1,42.488-24.01l.764-2.465A36.106,36.106,0,0,0,40.387,24Z" transform="translate(-0.572 -24)"/></g></g><g transform="translate(66.453 24.035)"><path class="a" d="M422.343,153.551l-7.557-4.535-4.534,7.559,2.213,1.328,2.258-3.764a33.577,33.577,0,0,1-5.686,31.965l2,1.626a36.134,36.134,0,0,0,6.183-34.24l3.792,2.275Z" transform="translate(-409.036 -149.016)"/></g></g></svg>