<svg xmlns="http://www.w3.org/2000/svg" width="80" height="80" viewBox="0 0 80 80"><defs><style>.a{fill:#ef8216;}</style></defs><g transform="translate(0 0.001)"><path class="a" d="M78.667,48H70.884l-7.21-2.4-2.341-5.856V35.333A5.986,5.986,0,0,0,55.991,29.4c0-.183.009-.366.009-.548V9.333a1.333,1.333,0,0,0-.951-1.277l-26.667-8a1.333,1.333,0,0,0-.766,0L.95,8.056A1.334,1.334,0,0,0,0,9.333V28.852c0,.618.042,1.229.064,1.844.034.9.084,1.795.164,2.684.014.152.032.294.047.444A49.25,49.25,0,0,0,27.4,73.2a1.333,1.333,0,0,0,1.192,0A49.9,49.9,0,0,0,34.359,69.8a5.375,5.375,0,0,0,1.556,1.435A5.333,5.333,0,0,0,40,80H62.667a1.337,1.337,0,0,0,.74-.224l7.66-5.109h7.6A1.333,1.333,0,0,0,80,73.333v-24A1.333,1.333,0,0,0,78.667,48ZM49.809,41.449l1.555,3.884H43.617a34.571,34.571,0,0,0,4.374-16.605l5.342-1.6v1.727c0,.285-.009.569-.014.855a5.991,5.991,0,0,0-3.986,5.626v3.639a6.655,6.655,0,0,0,.476,2.477ZM30.667,50.666a5.308,5.308,0,0,0,1.467,3.658c-.495.36-.98.733-1.491,1.066L28,57.081l-2.637-1.695A31.88,31.88,0,0,1,12.575,39.353l32.72-9.816a31.9,31.9,0,0,1-4.787,15.8H36a5.334,5.334,0,0,0-5.333,5.333ZM3.391,36.983c-.01-.067-.023-.133-.033-.2l5.3-1.585c.157.8.348,1.6.561,2.382L3.842,39.194c-.176-.765-.321-1.495-.452-2.212Zm-.615-5.356,5.273-1.583c.037.836.1,1.667.195,2.49L2.982,34.113c-.013-.12-.023-.238-.037-.359-.068-.687-.13-1.385-.169-2.128ZM45.333,16.074l-34.667,10.4V16.94l17.379-6.206,17.288,4.938Zm0,2.784v2.549L10.848,31.753q-.126-1.242-.158-2.5Zm8,2.934v2.549L48,25.941V23.391Zm0-2.785L48,20.608V18.058l5.333-1.6ZM11.221,34.425l21.7-6.508,12.416-3.725v2.549L11.771,36.81c-.211-.786-.4-1.58-.549-2.385Zm-8.555-24.1L28,2.725l25.333,7.6v3.349L48,15.274v-.608a1.332,1.332,0,0,0-.967-1.281L28.367,8.052a1.319,1.319,0,0,0-.814.025L8.885,14.744A1.333,1.333,0,0,0,8,16V27.274l-5.333,1.6ZM28,70.5A46.614,46.614,0,0,1,4.462,41.786l5.556-1.667a34.524,34.524,0,0,0,13.9,17.51l3.359,2.159a1.334,1.334,0,0,0,1.443,0l3.359-2.159.035-.023a5.271,5.271,0,0,0,2.471,5.63,5.146,5.146,0,0,0-1.215,3.985A46.928,46.928,0,0,1,28,70.5Zm34.267,6.829H40a2.657,2.657,0,0,1-.221-5.305A1.361,1.361,0,0,0,41,70.614a1.333,1.333,0,0,0-1.333-1.281h-1a2.667,2.667,0,1,1,0-5.333,1.333,1.333,0,1,0,0-2.667H37.333a2.667,2.667,0,1,1,0-5.333,1.333,1.333,0,0,0,0-2.667H36A2.667,2.667,0,1,1,36,48H53.333a1.334,1.334,0,0,0,1.239-1.829l-2.286-5.712A3.97,3.97,0,0,1,52,38.971V35.333a3.333,3.333,0,1,1,6.667,0V40a1.362,1.362,0,0,0,.094.5l2.667,6.667a1.345,1.345,0,0,0,.818.77l7.088,2.363V72.619ZM77.333,72H72V50.666h5.333Zm0,0" transform="translate(0 0)"/><path class="a" d="M412.132,102.719l-2.109,2.252a23.043,23.043,0,0,1,1.982,2.1l2.372-1.972a26.23,26.23,0,0,0-2.246-2.383Zm0,0" transform="translate(-343.513 -85.732)"/><path class="a" d="M450.857,194.468q0-.907-.062-1.8l-3.077.209q.053.786.054,1.588,0,.655-.037,1.3l3.084.177Q450.858,195.212,450.857,194.468Zm0,0" transform="translate(-373.942 -160.745)"/><path class="a" d="M390.07,84.551a26.188,26.188,0,0,0-2.765-1.758l-1.488,2.7a23.24,23.24,0,0,1,2.438,1.542Zm0,0" transform="translate(-323.792 -69.099)"/><path class="a" d="M446.178,224.2l-3.035-.552a22.784,22.784,0,0,1-.694,2.8l2.939.925A25.978,25.978,0,0,0,446.178,224.2Zm0,0" transform="translate(-369.688 -186.62)"/><path class="a" d="M361.88,71.288a25.869,25.869,0,0,0-3.117-1.014l-.771,2.987a23.179,23.179,0,0,1,2.749.895Zm0,0" transform="translate(-298.737 -56.902)"/><path class="a" d="M433,253.7l2.7,1.5c.309-.566.617-1.145.88-1.74l-2.8-1.289Q433.424,252.95,433,253.7Zm0,0" transform="translate(-362.061 -210.363)"/><path class="a" d="M429.16,130.448a23.476,23.476,0,0,1,1.4,2.523l2.785-1.323a26.055,26.055,0,0,0-1.588-2.862Zm0,0" transform="translate(-358.961 -107.481)"/><path class="a" d="M442,160.349a23.2,23.2,0,0,1,.728,2.793l3.027-.587a25.884,25.884,0,0,0-.827-3.171Zm0,0" transform="translate(-369.326 -132.996)"/><path class="a" d="M357.576,139.662a9.8,9.8,0,0,1,6.191,9.142h3.084a12.868,12.868,0,0,0-8.129-12.007l-.55-.22-1.148,2.862Zm0,0" transform="translate(-300.536 -114.358)"/></g></svg>